<?xml version="1.0" encoding="UTF-8" standalone="no"?><!DOCTYPE svg PUBLIC "-//W3C//DTD SVG 1.1//EN" "http://www.w3.org/Graphics/SVG/1.1/DTD/svg11.dtd"><svg width="100%" height="100%" viewBox="0 0 106 130" version="1.1" xmlns="http://www.w3.org/2000/svg" xmlns:xlink="http://www.w3.org/1999/xlink" xml:space="preserve" style="fill-rule:evenodd;clip-rule:evenodd;stroke-linejoin:round;stroke-miterlimit:1.41421;"><g id="Logo"><clipPath id="_clip1"><path d="M28.96,28.952l23.907,0l-23.907,23.925l0,-23.925Z"/></clipPath><g clip-path="url(#_clip1)"><rect x="23.96" y="23.952" width="33.907" height="33.925" style="fill:#f18100;"/></g><clipPath id="_clip2"><path d="M52.867,52.877l-23.907,0l23.907,-23.925l0,23.925Z"/></clipPath><g clip-path="url(#_clip2)"><rect x="23.96" y="23.952" width="33.907" height="33.925" style="fill:#f9b42d;"/></g><clipPath id="_clip3"><path d="M28.951,76.793l0,-23.906l23.925,23.906l-23.925,0Z"/></clipPath><g clip-path="url(#_clip3)"><rect x="23.951" y="47.887" width="33.925" height="33.907" style="fill:#8b8b8b;"/></g><clipPath id="_clip4"><path d="M52.876,52.887l0,23.906l-23.925,-23.906l23.925,0Z"/></clipPath><g clip-path="url(#_clip4)"><rect x="23.951" y="47.887" width="33.925" height="33.907" style="fill:#e0dfe0;"/></g><clipPath id="_clip5"><path d="M28.951,76.812l0,23.907l23.925,-23.907l-23.925,0Z"/></clipPath><g clip-path="url(#_clip5)"><rect x="23.951" y="71.812" width="33.925" height="33.907" style="fill:#ba1800;"/></g><clipPath id="_clip6"><path d="M52.876,100.719l0,-23.907l-23.925,23.906l23.925,0Z"/></clipPath><g clip-path="url(#_clip6)"><rect x="23.951" y="71.812" width="33.925" height="33.907" style="fill:#db2023;"/></g><clipPath id="_clip7"><path d="M76.783,76.793l0,-23.906l-23.925,23.906l23.925,0Z"/></clipPath><g clip-path="url(#_clip7)"><rect x="47.858" y="47.887" width="33.925" height="33.907" style="fill:#114300;"/></g><clipPath id="_clip8"><path d="M52.858,52.887l0,23.906l23.925,-23.906l-23.925,0Z"/></clipPath><g clip-path="url(#_clip8)"><rect x="47.858" y="47.887" width="33.925" height="33.907" style="fill:#518501;"/></g><clipPath id="_clip9"><path d="M76.764,76.793l0,-23.906l23.925,23.906l-23.925,0Z"/></clipPath><g clip-path="url(#_clip9)"><rect x="71.764" y="47.887" width="33.925" height="33.907" style="fill:#f18100;"/></g><clipPath id="_clip10"><path d="M100.689,52.887l0,23.906l-23.925,-23.906l23.925,0Z"/></clipPath><g clip-path="url(#_clip10)"><rect x="71.764" y="47.887" width="33.925" height="33.907" style="fill:#f9b42d;"/></g><clipPath id="_clip11"><path d="M28.96,28.952l0,23.925l-23.907,-23.925l23.907,0Z"/></clipPath><g clip-path="url(#_clip11)"><rect x="0.053" y="23.952" width="33.907" height="33.925" style="fill:#ba1800;"/></g><clipPath id="_clip12"><path d="M5.053,52.877l0,-23.925l23.907,23.925l-23.907,0Z"/></clipPath><g clip-path="url(#_clip12)"><rect x="0.053" y="23.952" width="33.907" height="33.925" style="fill:#db2023;"/></g><clipPath id="_clip13"><path d="M5.053,52.877l23.907,0l-23.907,23.926l0,-23.926Z"/></clipPath><g clip-path="url(#_clip13)"><rect x="0.053" y="47.877" width="33.907" height="33.925" style="fill:#518501;"/></g><clipPath id="_clip14"><path d="M28.96,76.803l0,23.925l-23.907,-23.925l23.907,0Z"/></clipPath><g clip-path="url(#_clip14)"><rect x="0.053" y="71.803" width="33.907" height="33.925" style="fill:#f18100;"/></g><clipPath id="_clip15"><path d="M5.053,100.728l0,-23.925l23.907,23.925l-23.907,0Z"/></clipPath><g clip-path="url(#_clip15)"><rect x="0.053" y="71.803" width="33.907" height="33.925" style="fill:#f9b42d;"/></g><clipPath id="_clip16"><path d="M28.951,124.644l0,-23.907l23.925,23.907l-23.925,0Z"/></clipPath><g clip-path="url(#_clip16)"><rect x="23.951" y="95.737" width="33.925" height="33.907" style="fill:#114300;"/></g><clipPath id="_clip17"><path d="M52.876,100.737l0,23.907l-23.925,-23.907l23.925,0Z"/></clipPath><g clip-path="url(#_clip17)"><rect x="23.951" y="95.737" width="33.925" height="33.907" style="fill:#518501;"/></g><clipPath id="_clip18"><path d="M28.96,124.653l0,-23.925l-23.907,23.925l23.907,0Z"/></clipPath><g clip-path="url(#_clip18)"><rect x="0.053" y="95.728" width="33.907" height="33.925" style="fill:#8b8b8b;"/></g><clipPath id="_clip19"><path d="M5.053,100.728l0,23.925l23.907,-23.925l-23.907,0Z"/></clipPath><g clip-path="url(#_clip19)"><rect x="0.053" y="95.728" width="33.907" height="33.925" style="fill:#e0dfe0;"/></g><clipPath id="_clip20"><path d="M76.773,28.952l23.907,0l-23.907,-23.925l0,23.925Z"/></clipPath><g clip-path="url(#_clip20)"><rect x="71.773" y="0.027" width="33.907" height="33.925" style="fill:#ba1800;"/></g><clipPath id="_clip21"><path d="M100.68,5.027l-23.907,0l23.907,23.925l0,-23.925Z"/></clipPath><g clip-path="url(#_clip21)"><rect x="71.773" y="0.027" width="33.907" height="33.925" style="fill:#db2023;"/></g><clipPath id="_clip22"><path d="M76.773,28.952l-23.906,0l23.906,-23.925l0,23.925Z"/></clipPath><g clip-path="url(#_clip22)"><rect x="47.867" y="0.027" width="33.907" height="33.925" style="fill:#f18100;"/></g><clipPath id="_clip23"><path d="M52.867,5.027l23.906,0l-23.906,23.925l0,-23.925Z"/></clipPath><g clip-path="url(#_clip23)"><rect x="47.867" y="0.027" width="33.907" height="33.925" style="fill:#f9b42d;"/></g><clipPath id="_clip24"><path d="M28.96,28.952l0,-23.925l-23.907,23.925l23.907,0Z"/></clipPath><g clip-path="url(#_clip24)"><rect x="0.053" y="0.027" width="33.907" height="33.925" style="fill:#8b8b8b;"/></g><clipPath id="_clip25"><path d="M28.96,28.952l23.907,0l-23.907,-23.925l0,23.925Z"/></clipPath><g clip-path="url(#_clip25)"><rect x="23.96" y="0.027" width="33.907" height="33.925" style="fill:#114300;"/></g><clipPath id="_clip26"><path d="M28.96,76.803l-23.907,0l23.907,-23.926l0,23.926Z"/></clipPath><g clip-path="url(#_clip26)"><rect x="0.053" y="47.877" width="33.907" height="33.925" style="fill:#114300;"/></g><clipPath id="_clip27"><path d="M52.867,5.027l-23.907,0l23.907,23.925l0,-23.925Z"/></clipPath><g clip-path="url(#_clip27)"><rect x="23.96" y="0.027" width="33.907" height="33.925" style="fill:#518501;"/></g></g></svg>